<?xml version="1.0" standalone="no"?>
<!DOCTYPE svg PUBLIC "-//W3C//DTD SVG 20010904//EN"
 "http://www.w3.org/TR/2001/REC-SVG-20010904/DTD/svg10.dtd">
<svg version="1.0" xmlns="http://www.w3.org/2000/svg"
 width="512.000000pt" height="512.000000pt" viewBox="0 0 512.000000 512.000000"
 preserveAspectRatio="xMidYMid meet">
<metadata>
Created by potrace 1.14, written by Peter Selinger 2001-2017
</metadata>
<g transform="translate(0.000000,512.000000) scale(0.100000,-0.100000)"
fill="#000000" stroke="none">
<path d="M0 2560 l0 -2560 2560 0 2560 0 0 2560 0 2560 -2560 0 -2560 0 0
-2560z m2170 1345 l0 -195 -305 0 c-281 0 -309 -2 -343 -19 -20 -10 -47 -30
-58 -43 -50 -54 -52 -67 -56 -358 -4 -251 -7 -280 -26 -334 -27 -72 -63 -136
-109 -194 -42 -52 -162 -138 -215 -154 -35 -10 -38 -14 -38 -48 0 -34 3 -38
38 -48 53 -16 173 -102 215 -154 46 -58 82 -122 109 -194 19 -54 22 -83 26
-334 4 -297 8 -315 64 -366 57 -53 65 -54 393 -54 l305 0 0 -195 0 -195 -317
0 c-351 0 -396 6 -508 63 -80 42 -220 182 -262 262 -55 106 -63 164 -63 436 0
215 -3 249 -19 284 -38 83 -89 105 -246 105 l-115 0 0 390 0 390 115 0 c157 0
208 22 246 105 16 35 19 69 19 284 0 272 8 330 63 436 39 76 182 220 257 259
110 59 153 65 508 65 l322 1 0 -195z m1479 179 c105 -26 177 -69 271 -164 158
-157 180 -229 180 -578 0 -196 3 -250 15 -279 38 -90 88 -112 248 -113 l117 0
0 -390 0 -390 -115 0 c-157 0 -208 -22 -246 -105 -16 -35 -19 -69 -19 -284 0
-272 -8 -330 -63 -436 -42 -80 -182 -220 -262 -262 -112 -57 -157 -63 -508
-63 l-317 0 0 195 0 195 305 0 c262 0 311 2 338 16 45 23 76 53 98 96 17 33
19 61 19 275 0 267 10 338 60 440 17 34 49 85 71 113 45 57 165 145 221 162
35 10 38 14 38 48 0 34 -3 38 -38 48 -56 17 -176 105 -221 162 -22 28 -54 79
-71 113 -50 102 -60 173 -60 440 0 214 -2 242 -19 275 -22 43 -53 73 -98 96
-27 14 -76 16 -338 16 l-305 0 0 195 0 195 317 0 c258 0 329 -3 382 -16z"/>
</g>
</svg>
