<?xml version="1.0" standalone="no"?>
<!DOCTYPE svg PUBLIC "-//W3C//DTD SVG 20010904//EN"
 "http://www.w3.org/TR/2001/REC-SVG-20010904/DTD/svg10.dtd">
<svg version="1.0" xmlns="http://www.w3.org/2000/svg"
 width="500.000000pt" height="500.000000pt" viewBox="0 0 500.000000 500.000000"
 preserveAspectRatio="xMidYMid meet">
<metadata>
Created by potrace 1.14, written by Peter Selinger 2001-2017
</metadata>
<g transform="translate(0.000000,500.000000) scale(0.100000,-0.100000)"
fill="#000000" stroke="none">
<path d="M980 4180 c-47 -9 -88 -31 -128 -71 -73 -72 -67 44 -67 -1329 0 -679
3 -1255 8 -1280 38 -229 168 -450 352 -597 91 -74 266 -162 352 -178 15 -2 55
-10 88 -16 155 -28 382 -4 527 57 35 14 106 54 159 89 167 111 289 258 359
435 53 133 71 224 74 375 3 147 -16 248 -74 376 -48 110 -77 150 -177 252 -94
94 -223 166 -365 201 -181 46 -293 31 -370 -48 -51 -53 -70 -98 -71 -170 -1
-135 94 -232 244 -247 84 -8 175 -43 218 -82 37 -34 76 -98 90 -145 28 -96 9
-267 -41 -371 -42 -87 -160 -184 -269 -222 -213 -72 -464 32 -563 234 -58 119
-55 60 -54 1352 1 1171 0 1192 -19 1236 -23 51 -79 110 -126 132 -39 19 -100
26 -147 17z"/>
<path d="M2306 4178 c-98 -21 -181 -115 -186 -210 -4 -72 1 -96 36 -155 58
-98 96 -113 319 -128 206 -13 419 -74 566 -160 33 -19 62 -35 65 -35 8 0 124
-79 174 -119 81 -64 195 -184 267 -281 111 -150 219 -385 253 -550 5 -25 11
-54 14 -65 7 -35 17 -137 21 -220 2 -44 9 -95 14 -114 50 -169 282 -222 404
-93 43 44 74 131 71 194 -8 148 -15 231 -29 308 -9 47 -18 100 -21 118 -7 45
-46 171 -78 254 -48 126 -180 372 -237 442 -164 201 -178 217 -290 322 -161
150 -432 311 -644 382 -149 50 -190 61 -275 77 -14 3 -38 7 -53 11 -16 3 -41
7 -55 9 -160 20 -284 25 -336 13z"/>
<path d="M2030 3381 c-189 -39 -264 -275 -129 -409 51 -51 94 -71 166 -77 203
-17 246 -26 388 -82 83 -33 128 -58 163 -90 7 -7 17 -13 21 -13 9 0 167 -153
193 -187 125 -164 192 -348 197 -538 3 -136 36 -201 129 -259 89 -56 199 -43
283 32 77 69 94 139 75 322 -23 237 -108 471 -242 667 -205 301 -504 508 -859
596 -143 36 -314 52 -385 38z"/>
</g>
</svg>
