<svg width="1011.4400146484375px" height="249.43999633789062px" xmlns="http://www.w3.org/2000/svg" viewBox="-255.72000732421873 -49.71999816894531 1011.4400146484375 249.43999633789062" style="background: rgba(0, 0, 0, 0);" preserveAspectRatio="xMidYMid"><defs><linearGradient id="editing-gradient-gradient" x1="0" x2="1" y1="0.5" y2="0.5" gradientUnits="objectBoundingBox"><stop offset="0" stop-color="#000000"></stop><stop offset="1" stop-color="#000000"></stop></linearGradient></defs><g><g transform="translate(-113.52501392364502, 140.25000190734863)"><path d="M67.95-24L67.95-24Q67.95-11.40 61.72-5.70L61.72-5.70L61.72-5.70Q55.50 0 42.45 0L42.45 0L13.05 0L13.05-105L25.80-105L25.80-72L25.80-72Q30.30-75 37.05-75L37.05-75L42.45-75L42.45-75Q55.65-75 61.80-69.38L61.80-69.38L61.80-69.38Q67.95-63.75 67.95-51L67.95-51L67.95-24ZM35.55-63.75L35.55-63.75Q30.60-63.75 28.20-61.13L28.20-61.13L28.20-61.13Q25.80-58.50 25.80-55.50L25.80-55.50L25.80-11.25L43.95-11.25L43.95-11.25Q49.50-11.25 52.35-13.80L52.35-13.80L52.35-13.80Q55.20-16.35 55.20-21L55.20-21L55.20-54L55.20-54Q55.20-58.65 52.35-61.20L52.35-61.20L52.35-61.20Q49.50-63.75 43.95-63.75L43.95-63.75L35.55-63.75ZM143.55 0L143.55 0Q141.60 0 139.28-1.20L139.28-1.20L139.28-1.20Q136.95-2.40 135.30-4.50L135.30-4.50L135.30-4.50Q131.85 0 126.15 0L126.15 0L112.80 0L112.80 0Q101.40 0 96.22-4.58L96.22-4.58L96.22-4.58Q91.05-9.15 91.05-20.25L91.05-20.25L91.05-23.25L91.05-23.25Q91.05-46.50 112.95-46.50L112.95-46.50L131.55-46.50L131.55-54L131.55-54Q131.55-58.65 128.70-61.20L128.70-61.20L128.70-61.20Q125.85-63.75 120.30-63.75L120.30-63.75L97.05-63.75L97.05-75L118.80-75L118.80-75Q131.85-75 138.07-69.30L138.07-69.30L138.07-69.30Q144.30-63.60 144.30-51L144.30-51L144.30-15L144.30-15Q144.30-12.75 146.02-11.63L146.02-11.63L146.02-11.63Q147.75-10.50 151.80-10.50L151.80-10.50L151.80 0L143.55 0ZM124.65-11.25L124.65-11.25Q129.15-11.25 130.35-13.35L130.35-13.35L130.35-13.35Q131.55-15.45 131.55-18.75L131.55-18.75L131.55-35.25L112.80-35.25L112.80-35.25Q108.90-35.25 106.35-32.70L106.35-32.70L106.35-32.70Q103.80-30.15 103.80-26.25L103.80-26.25L103.80-18.75L103.80-18.75Q103.80-14.85 105.60-13.05L105.60-13.05L105.60-13.05Q107.40-11.25 111.30-11.25L111.30-11.25L124.65-11.25ZM189 14.25L189 14.25Q192.60 14.25 194.40 12.90L194.40 12.90L194.40 12.90Q196.20 11.55 197.10 8.25L197.10 8.25L199.20 0L196.20 0L171.45-75L185.25-75L204-12.15L220.35-75L233.40-75L210.15 8.10L210.15 8.10Q208.20 15.75 205.35 19.50L205.35 19.50L205.35 19.50Q202.50 23.25 198.97 24.38L198.97 24.38L198.97 24.38Q195.45 25.50 189.90 25.50L189.90 25.50L182.70 25.50L182.70 14.25L189 14.25ZM258-11.25L268.95-11.25L268.95-63.75L258-63.75L258-75L280.95-75L280.95-70.95L280.95-70.95Q285.90-75 292.95-75L292.95-75L308.40-75L308.40-63L291.45-63L291.45-63Q286.65-63 284.25-59.92L284.25-59.92L284.25-59.92Q281.85-56.85 281.70-53.70L281.70-53.70L281.70-11.25L298.05-11.25L298.05 0L258 0L258-11.25ZM386.55 0L386.55 0Q384.60 0 382.27-1.20L382.27-1.20L382.27-1.20Q379.95-2.40 378.30-4.50L378.30-4.50L378.30-4.50Q374.85 0 369.15 0L369.15 0L355.80 0L355.80 0Q344.40 0 339.23-4.58L339.23-4.58L339.23-4.58Q334.05-9.15 334.05-20.25L334.05-20.25L334.05-23.25L334.05-23.25Q334.05-46.50 355.95-46.50L355.95-46.50L374.55-46.50L374.55-54L374.55-54Q374.55-58.65 371.70-61.20L371.70-61.20L371.70-61.20Q368.85-63.75 363.30-63.75L363.30-63.75L340.05-63.75L340.05-75L361.80-75L361.80-75Q374.85-75 381.07-69.30L381.07-69.30L381.07-69.30Q387.30-63.60 387.30-51L387.30-51L387.30-15L387.30-15Q387.30-12.75 389.02-11.63L389.02-11.63L389.02-11.63Q390.75-10.50 394.80-10.50L394.80-10.50L394.80 0L386.55 0ZM367.65-11.25L367.65-11.25Q372.15-11.25 373.35-13.35L373.35-13.35L373.35-13.35Q374.55-15.45 374.55-18.75L374.55-18.75L374.55-35.25L355.80-35.25L355.80-35.25Q351.90-35.25 349.35-32.70L349.35-32.70L349.35-32.70Q346.80-30.15 346.80-26.25L346.80-26.25L346.80-18.75L346.80-18.75Q346.80-14.85 348.60-13.05L348.60-13.05L348.60-13.05Q350.40-11.25 354.30-11.25L354.30-11.25L367.65-11.25ZM411.45-75L422.70-75L422.70-71.55L422.70-71.55Q426.60-75 432-75L432-75L432.90-75L432.90-75Q443.40-75 447.75-69L447.75-69L447.75-69Q452.70-75 460.80-75L460.80-75L461.70-75L461.70-75Q470.85-75 475.20-70.35L475.20-70.35L475.20-70.35Q479.55-65.70 479.55-53.85L479.55-53.85L479.55 0L467.55 0L467.55-54L467.55-54Q467.55-60.15 466.27-62.55L466.27-62.55L466.27-62.55Q465-64.95 460.50-64.95L460.50-64.95L459.60-64.95L459.60-64.95Q455.10-64.95 453.38-61.88L453.38-61.88L453.38-61.88Q451.65-58.80 451.50-55.05L451.50-55.05L451.50 0L439.50 0L439.50-54L439.50-54Q439.50-60.30 438-62.63L438-62.63L438-62.63Q436.50-64.95 432.60-64.95L432.60-64.95L431.70-64.95L431.70-64.95Q427.20-64.95 425.40-62.32L425.40-62.32L425.40-62.32Q423.60-59.70 423.45-56.40L423.45-56.40L423.45 0L411.45 0L411.45-75ZM554.40-24L554.40-24Q554.40-11.40 548.17-5.70L548.17-5.70L548.17-5.70Q541.95 0 528.90 0L528.90 0L523.95 0L523.95 0Q510.90 0 504.68-5.70L504.68-5.70L504.68-5.70Q498.45-11.40 498.45-24L498.45-24L498.45-51L498.45-51Q498.45-63.60 504.68-69.30L504.68-69.30L504.68-69.30Q510.90-75 523.95-75L523.95-75L528.90-75L528.90-75Q541.95-75 548.17-69.30L548.17-69.30L548.17-69.30Q554.40-63.60 554.40-51L554.40-51L554.40-24ZM541.65-54L541.65-54Q541.65-58.65 538.80-61.20L538.80-61.20L538.80-61.20Q535.95-63.75 530.40-63.75L530.40-63.75L522.45-63.75L522.45-63.75Q516.90-63.75 514.05-61.20L514.05-61.20L514.05-61.20Q511.20-58.65 511.20-54L511.20-54L511.20-21L511.20-21Q511.20-16.35 514.05-13.80L514.05-13.80L514.05-13.80Q516.90-11.25 522.45-11.25L522.45-11.25L530.40-11.25L530.40-11.25Q535.95-11.25 538.80-13.80L538.80-13.80L538.80-13.80Q541.65-16.35 541.65-21L541.65-21L541.65-54ZM612.60-93.75L612.60-93.75Q610.20-93.75 608.77-92.47L608.77-92.47L608.77-92.47Q607.35-91.20 607.35-89.25L607.35-89.25L607.35-75L631.50-75L631.50-63.75L607.35-63.75L607.35-11.25L625.50-11.25L625.50 0L581.85 0L581.85-11.25L594.60-11.25L594.60-63.75L581.85-63.75L581.85-75L594.60-75L594.60-88.50L594.60-88.50Q594.60-96.15 598.95-100.58L598.95-100.58L598.95-100.58Q603.30-105 610.20-105L610.20-105L633-105L633-93.75L612.60-93.75ZM693.60-93.75L693.60-93.75Q691.20-93.75 689.77-92.47L689.77-92.47L689.77-92.47Q688.35-91.20 688.35-89.25L688.35-89.25L688.35-75L712.50-75L712.50-63.75L688.35-63.75L688.35-11.25L706.50-11.25L706.50 0L662.85 0L662.85-11.25L675.60-11.25L675.60-63.75L662.85-63.75L662.85-75L675.60-75L675.60-88.50L675.60-88.50Q675.60-96.15 679.95-100.58L679.95-100.58L679.95-100.58Q684.30-105 691.20-105L691.20-105L714-105L714-93.75L693.60-93.75Z" fill="url(#editing-gradient-gradient)"></path></g></g><style>text {
  font-size: 64px;
  font-family: Arial Black;
  dominant-baseline: central;
  text-anchor: middle;
}</style></svg>